# xmcd
#
# Track frame offsets: 
#        150
#        17067
#        43465
#        63299
#        78267
#        97000
#        118780
#        137498
#        157456
#        184582
#        214867
#
# Disc length: 3055 seconds
#
# Revision: 0
# Processed by: cddbd v1.5.2PL0 Copyright (c) Steve Scherf et al.
# Submitted via: ExactAudioCopy v0.99pb5
#
DISCID=9d0bed0b
DTITLE=Loose Marbles - Mush Face Killa
DYEAR=1900
DGENRE=Swing
TTITLE0=01 Milenburg Joys
TTITLE1=02 When I Get High I Get Low
TTITLE2=03 Electric Chair Blues
TTITLE3=04 Four Or Five Times
TTITLE4=05 Tell Me Your Dreams
TTITLE5=06 Some Of These Days
TTITLE6=07 Trouble In Mind
TTITLE7=08 I Get The Blues When It Rains
TTITLE8=09 What Am I Living For
TTITLE9=10 Tishimingo Blues
TTITLE10=11 My Life Will Be Sweeter
EXTD=
EXTT0=
EXTT1=
EXTT2=
EXTT3=
EXTT4=
EXTT5=
EXTT6=
EXTT7=
EXTT8=
EXTT9=
EXTT10=
PLAYORDER=
